#!OML:ASF E:\acrobat2\Project_11_07_03\Capture day 1\Session 1\Acrobat.ASF
:FULLY-SPECIFIED
:DEGREES
514
root 10.8455 11.7893 -6.72266 244.788 2.31413 180.46
lowerback 9.90083 -0.967044 -1.07976
upperback 13.9478 0.946325 -1.47292
thorax 9.37402 1.18502 -0.868864
lowerneck 2.44767 -0.761131 -1.22059
upperneck -26.4062 -2.34362 1.69682
head -8.56596 -2.13125 1.11608
rclavicle -8.44835e-016 1.07188e-014
rhumerus 26.7366 7.66587 -82.256
rradius 15.3081
rwrist -1.21275
rhand -3.04964 -41.4432
rfingers 7.12502
rthumb 22.6663 289.868
lclavicle -8.44835e-016 1.07188e-014
lhumerus 34.2951 -36.2589 66.4233
lradius 16.483
lwrist 15.7513
lhand -9.28595 -0.0324954
lfingers 7.12502
lthumb 16.6712 29.2716
rfemur -40.6624 -1.32725 -82.8642
rtibia -6.56308
rfoot -90.7417 3.68976
rtoes 54.5039
lfemur -117.442 47.8458 -45.6879
ltibia 6.44249
lfoot 11.1048 32.0794
ltoes 54.4153
515
root 10.8382 11.8026 -6.77128 246.243 2.29568 180.406
lowerback 7.85192 -0.860874 -0.821682
upperback 13.5187 0.909701 -1.50274
thorax 10.0481 1.12302 -1.02694
lowerneck 2.46972 -0.712129 -1.2433
upperneck -26.5382 -2.28088 1.75477
head -8.61579 -2.1147 1.13913
rclavicle 3.2551e-015 7.86519e-015
rhumerus 26.8892 7.47296 -81.6959
rradius 15.3491
rwrist 0.485727
rhand -2.50316 -40.9772
rfingers 7.12502
rthumb 23.1907 290.399
lclavicle 3.2551e-015 7.86519e-015
lhumerus 34.7087 -35.3082 66.0634
lradius 16.4892
lwrist 13.9532
lhand -5.77634 -0.241825
lfingers 7.12502
lthumb 20.0473 28.744
rfemur -40.3213 -1.41784 -83.8923
rtibia -6.86131
rfoot -92.2082 3.7887
rtoes 54.4031
lfemur -119.135 46.9894 -46.7144
ltibia 6.82006
lfoot 11.0329 31.6647
ltoes 54.3585
516
root 10.8305 11.813 -6.8169 247.617 2.25075 180.38
lowerback 5.85864 -0.755755 -0.544237
upperback 13.0851 0.874863 -1.528
thorax 10.7081 1.06874 -1.19563
lowerneck 2.59861 -0.665802 -1.16707
upperneck -26.8113 -2.24593 1.71009
head -8.73693 -2.11819 1.1183
rclavicle 4.67144e-015 4.25523e-016
rhumerus 27.0548 7.3623 -81.1549
rradius 15.3484
rwrist 2.06242
rhand -2.08238 -40.4935
rfingers 7.12502
rthumb 23.5944 290.934
lclavicle 4.67144e-015 4.25523e-016
lhumerus 35.2596 -34.5222 65.488
lradius 16.4843
lwrist 12.1647
lhand -2.5762 -0.867013
lfingers 7.12502
lthumb 23.1206 27.7657
rfemur -39.9896 -1.53993 -84.7928
rtibia -7.13371
rfoot -93.5522 3.86755
rtoes 54.3111
lfemur -120.697 46.1585 -47.587
ltibia 7.18568
lfoot 10.93 31.2783
ltoes 54.3022
517
root 10.8223 11.8203 -6.85981 248.914 2.19218 180.373
lowerback 3.92815 -0.650264 -0.262991
upperback 12.6396 0.840491 -1.54939
thorax 11.3372 1.01929 -1.36707
lowerneck 2.81848 -0.628905 -1.00339
upperneck -27.1916 -2.24389 1.57726
head -8.915 -2.14265 1.05944
rclavicle -1.59028e-015 -2.8948e-015
rhumerus 27.2119 7.3016 -80.6662
rradius 15.3358
rwrist 3.35477
rhand -1.91503 -40.0822
rfingers 7.12502
rthumb 23.7549 291.366
lclavicle -1.59028e-015 -2.8948e-015
lhumerus 35.8909 -33.8665 64.7815
lradius 16.4731
lwrist 10.3161
lhand 0.226598 -1.7293
lfingers 7.12502
lthumb 25.8074 26.5401
rfemur -39.6585 -1.67475 -85.6013
rtibia -7.39199
rfoot -94.7956 3.98475
rtoes 54.2354
lfemur -122.139 45.3643 -48.3366
ltibia 7.53303
lfoot 10.7867 30.9319
ltoes 54.2466
518
root 10.8135 11.8244 -6.90024 250.14 2.13812 180.371
lowerback 2.05228 -0.542592 -0.00202442
upperback 12.1817 0.809459 -1.5656
thorax 11.9363 0.973109 -1.52583
lowerneck 3.06704 -0.606017 -0.822268
upperneck -27.5769 -2.26791 1.41409
head -9.10178 -2.17797 0.98964
rclavicle -3.97569e-016 4.93856e-016
rhumerus 27.355 7.32494 -80.2004
rradius 15.342
rwrist 4.16326
rhand -2.10929 -39.8025
rfingers 7.12502
rthumb 23.5686 291.622
lclavicle -3.97569e-016 4.93856e-016
lhumerus 36.5454 -33.2816 64.0591
lradius 16.46
lwrist 8.37843
lhand 2.54972 -2.65021
lfingers 7.12502
lthumb 28.0302 25.2762
rfemur -39.3256 -1.9024 -86.2942
rtibia -7.60897
rfoot -95.8475 4.15205
rtoes 54.1837
lfemur -123.474 44.6185 -49.0026
ltibia 7.85309
lfoot 10.5965 30.6258
ltoes 54.1823
519
root 10.8255 11.8886 -6.98871 249.41 2.21083 180.125
lowerback 2.79553 -0.563077 -0.321046
upperback 12.1465 0.804913 -1.52643
thorax 11.439 0.943081 -1.3114
lowerneck 3.26492 -0.614326 -0.685688
upperneck -27.9109 -2.33349 1.28167
head -9.26082 -2.23028 0.939411
rclavicle -1.49089e-015 -1.43746e-014
rhumerus 27.5328 7.36879 -79.6609
rradius 15.3822
rwrist 4.45149
rhand -2.65216 -39.6588
rfingers 7.12502
rthumb 23.0478 291.699
lclavicle -1.49089e-015 -1.43746e-014
lhumerus 37.2604 -32.7099 63.4849
lradius 16.4267
lwrist 6.37401
lhand 4.33712 -3.47586
lfingers 7.12502
lthumb 29.7375 24.1586
rfemur -39.3381 0.32966 -86.7248
rtibia -7.87616
rfoot -97.0105 4.55929
rtoes 54.1977
lfemur -121.882 45.279 -48.3036
ltibia 7.58614
lfoot 10.4989 30.2276
ltoes 53.9238
